<svg width="20" height="20" viewBox="0 0 20 20" fill="none" xmlns="http://www.w3.org/2000/svg">
<path d="M8.73691 20C8.51175 20 8.32314 19.9239 8.17107 19.7716C8.01901 19.6194 7.94298 19.4308 7.94298 19.2057V13.8085C7.94298 13.6986 7.95011 13.5886 7.96437 13.4786C7.97861 13.3686 8.00339 13.2641 8.03869 13.1649L9.12016 10.1059C9.24779 9.72451 9.47913 9.41464 9.81416 9.17626C10.1492 8.9379 10.5241 8.81872 10.9389 8.81872H17.0041C17.4189 8.81872 17.7938 8.9379 18.1288 9.17626C18.4639 9.41464 18.6952 9.72451 18.8228 10.1059L19.9043 13.1649C19.9396 13.2641 19.9643 13.3686 19.9786 13.4786C19.9929 13.5886 20 13.6986 20 13.8085V19.2057C20 19.4308 19.9238 19.6194 19.7715 19.7716C19.6192 19.9239 19.4305 20 19.2054 20C18.9802 20 18.7916 19.9239 18.6395 19.7716C18.4875 19.6194 18.4114 19.4308 18.4114 19.2057V18.3095H9.53152V19.2057C9.53152 19.4308 9.45538 19.6194 9.30308 19.7716C9.15077 19.9239 8.96205 20 8.73691 20ZM9.65374 12.444H18.2892L17.5377 10.3055C17.5173 10.2376 17.48 10.1833 17.4257 10.1426C17.3714 10.1018 17.3069 10.0814 17.2322 10.0814H10.7108C10.6361 10.0814 10.5716 10.1018 10.5173 10.1426C10.463 10.1833 10.4256 10.2376 10.4053 10.3055L9.65374 12.444ZM10.835 16.334C11.1178 16.334 11.3548 16.2384 11.5461 16.0471C11.7373 15.8558 11.833 15.6188 11.833 15.336C11.833 15.0533 11.7373 14.8163 11.5461 14.625C11.3548 14.4337 11.1178 14.3381 10.835 14.3381C10.5523 14.3381 10.3153 14.4337 10.124 14.625C9.9327 14.8163 9.83706 15.0533 9.83706 15.336C9.83706 15.6188 9.9327 15.8558 10.124 16.0471C10.3153 16.2384 10.5523 16.334 10.835 16.334ZM17.108 16.334C17.3907 16.334 17.6277 16.2384 17.819 16.0471C18.0103 15.8558 18.1059 15.6188 18.1059 15.336C18.1059 15.0533 18.0103 14.8163 17.819 14.625C17.6277 14.4337 17.3907 14.3381 17.108 14.3381C16.8252 14.3381 16.5882 14.4337 16.3969 14.625C16.2056 14.8163 16.11 15.0533 16.11 15.336C16.11 15.6188 16.2056 15.8558 16.3969 16.0471C16.5882 16.2384 16.8252 16.334 17.108 16.334ZM3.82892 11.5275V9.65374H5.70262V11.5275H3.82892ZM8.59467 5.70262V3.82892H10.4684V5.70262H8.59467ZM3.82892 15.7637V13.89H5.70262V15.7637H3.82892ZM3.82892 20V18.1263H5.70262V20H3.82892ZM0 20V7.43377C0 6.98708 0.156486 6.60724 0.469458 6.29427C0.782412 5.98132 1.16224 5.82484 1.60893 5.82484H4.76578V1.60893C4.76578 1.16224 4.92225 0.782413 5.23521 0.469458C5.54818 0.156486 5.92801 0 6.37471 0H12.6884C13.1351 0 13.5149 0.156486 13.8279 0.469458C14.1408 0.782413 14.2973 1.16224 14.2973 1.60893V6.57839H12.7087V1.58857H6.35432V7.41339H1.58857V20H0ZM9.20567 17.0468H18.7373V13.7067H9.20567V17.0468Z" fill="#363636"/>
</svg>
