<svg width="20" height="20" viewBox="0 0 20 20" fill="none" xmlns="http://www.w3.org/2000/svg">
<path d="M15.983 16.7252C15.2842 15.8001 14.3802 15.0498 13.3422 14.5336C12.3041 14.0173 11.1603 13.7491 10.001 13.7502C8.84162 13.7491 7.69786 14.0173 6.65979 14.5336C5.62173 15.0498 4.71772 15.8001 4.01898 16.7252M15.983 16.7252C17.3465 15.5124 18.3081 13.9137 18.7422 12.1413C19.1762 10.3688 19.0612 8.50628 18.4124 6.80067C17.7636 5.09506 16.6117 3.62697 15.1094 2.59109C13.607 1.55521 11.8253 1.00049 10.0005 1.00049C8.17564 1.00049 6.39391 1.55521 4.89158 2.59109C3.38925 3.62697 2.23731 5.09506 1.58851 6.80067C0.939716 8.50628 0.824727 10.3688 1.25879 12.1413C1.69286 13.9137 2.65548 15.5124 4.01898 16.7252M15.983 16.7252C14.337 18.1934 12.2066 19.0033 10.001 19.0002C7.79501 19.0036 5.66521 18.1936 4.01898 16.7252M13.001 7.75019C13.001 8.54584 12.6849 9.30891 12.1223 9.87151C11.5597 10.4341 10.7966 10.7502 10.001 10.7502C9.20533 10.7502 8.44226 10.4341 7.87966 9.87151C7.31705 9.30891 7.00098 8.54584 7.00098 7.75019C7.00098 6.95454 7.31705 6.19148 7.87966 5.62887C8.44226 5.06626 9.20533 4.75019 10.001 4.75019C10.7966 4.75019 11.5597 5.06626 12.1223 5.62887C12.6849 6.19148 13.001 6.95454 13.001 7.75019Z" stroke="#4B5563" stroke-width="1.5" stroke-linecap="round" stroke-linejoin="round"/>
</svg>
