<svg width="60" height="60" viewBox="0 0 60 60" fill="none" xmlns="http://www.w3.org/2000/svg">
<rect width="60" height="60" rx="30" fill="#F3F4F6"/>
<path d="M28.358 43C28.0653 43 27.8201 42.901 27.6224 42.7031C27.4247 42.5052 27.3259 42.26 27.3259 41.9674V34.9511C27.3259 34.8081 27.3351 34.6652 27.3537 34.5222C27.3722 34.3792 27.4044 34.2433 27.4503 34.1144L28.8562 30.1376C29.0221 29.6419 29.3229 29.239 29.7584 28.9291C30.1939 28.6193 30.6813 28.4643 31.2206 28.4643H39.1053C39.6445 28.4643 40.1319 28.6193 40.5675 28.9291C41.003 29.239 41.3037 29.6419 41.4696 30.1376L42.8755 34.1144C42.9214 34.2433 42.9536 34.3792 42.9722 34.5222C42.9907 34.6652 43 34.8081 43 34.9511V41.9674C43 42.26 42.901 42.5052 42.703 42.7031C42.505 42.901 42.2596 43 41.967 43C41.6743 43 41.4291 42.901 41.2314 42.7031C41.0337 42.5052 40.9349 42.26 40.9349 41.9674V40.8024H29.391V41.9674C29.391 42.26 29.292 42.5052 29.094 42.7031C28.896 42.901 28.6507 43 28.358 43ZM29.5499 33.1772H40.776L39.799 30.3971C39.7725 30.3089 39.724 30.2383 39.6534 30.1853C39.5828 30.1324 39.4989 30.1059 39.4018 30.1059H30.924C30.8269 30.1059 30.7431 30.1324 30.6725 30.1853C30.6019 30.2383 30.5533 30.3089 30.5269 30.3971L29.5499 33.1772ZM31.0855 38.2342C31.4531 38.2342 31.7612 38.1099 32.0099 37.8612C32.2585 37.6125 32.3829 37.3044 32.3829 36.9368C32.3829 36.5693 32.2585 36.2611 32.0099 36.0125C31.7612 35.7638 31.4531 35.6395 31.0855 35.6395C30.7179 35.6395 30.4098 35.7638 30.1612 36.0125C29.9125 36.2611 29.7882 36.5693 29.7882 36.9368C29.7882 37.3044 29.9125 37.6125 30.1612 37.8612C30.4098 38.1099 30.7179 38.2342 31.0855 38.2342ZM39.2403 38.2342C39.6079 38.2342 39.916 38.1099 40.1647 37.8612C40.4134 37.6125 40.5377 37.3044 40.5377 36.9368C40.5377 36.5693 40.4134 36.2611 40.1647 36.0125C39.916 35.7638 39.6079 35.6395 39.2403 35.6395C38.8728 35.6395 38.5646 35.7638 38.316 36.0125C38.0673 36.2611 37.943 36.5693 37.943 36.9368C37.943 37.3044 38.0673 37.6125 38.316 37.8612C38.5646 38.1099 38.8728 38.2342 39.2403 38.2342ZM21.9776 31.9857V29.5499H24.4134V31.9857H21.9776ZM28.1731 24.4134V21.9776H30.6089V24.4134H28.1731ZM21.9776 37.4929V35.057H24.4134V37.4929H21.9776ZM21.9776 43V40.5642H24.4134V43H21.9776ZM17 43V26.6639C17 26.0832 17.2034 25.5894 17.6103 25.1826C18.0171 24.7757 18.5109 24.5723 19.0916 24.5723H23.1955V19.0916C23.1955 18.5109 23.3989 18.0171 23.8058 17.6103C24.2126 17.2034 24.7064 17 25.2871 17H33.4949C34.0756 17 34.5694 17.2034 34.9762 17.6103C35.3831 18.0171 35.5865 18.5109 35.5865 19.0916V25.5519H33.5213V19.0651H25.2606V26.6374H19.0651V43H17ZM28.9674 39.1609H41.3585V34.8187H28.9674V39.1609Z" fill="#6B7280"/>
</svg>
