<?xml version="1.0" encoding="UTF-8"?>
<svg xmlns="http://www.w3.org/2000/svg" xmlns:xlink="http://www.w3.org/1999/xlink" width="20px" height="20px" viewBox="0 0 20 20" version="1.1">
<g id="surface1">
<path style=" stroke:none;fill-rule:evenodd;fill:rgb(29.411766%,33.333334%,38.82353%);fill-opacity:1;" d="M 10.832031 2.5 L 4.167969 2.5 L 4.167969 17.5 L 12.5 17.5 L 12.5 19.167969 L 4.167969 19.167969 C 3.246094 19.167969 2.5 18.421875 2.5 17.5 L 2.5 2.5 C 2.5 1.578125 3.246094 0.832031 4.167969 0.832031 L 12.84375 0.832031 L 17.5 5.488281 L 17.5 11.667969 L 15.832031 11.667969 L 15.832031 7.5 L 12.5 7.5 C 11.578125 7.5 10.832031 6.753906 10.832031 5.832031 Z M 15.832031 15.832031 L 15.832031 14.167969 L 17.5 14.167969 L 17.5 15.832031 L 19.167969 15.832031 L 19.167969 17.5 L 17.5 17.5 L 17.5 19.167969 L 15.832031 19.167969 L 15.832031 17.5 L 14.167969 17.5 L 14.167969 15.832031 Z M 15.488281 5.832031 L 12.5 2.84375 L 12.5 5.832031 Z M 15.488281 5.832031 "/>
</g>
</svg>
