<svg width="49" height="36" viewBox="0 0 49 36" fill="none" xmlns="http://www.w3.org/2000/svg">
<path d="M3.77273 36.009H11.4091V17.4636L0.5 9.28174V32.7363C0.5 34.5445 1.96455 36.009 3.77273 36.009Z" fill="#4285F4"/>
<path d="M37.5908 36.009H45.2272C47.0354 36.009 48.4999 34.5445 48.4999 32.7363V9.28174L37.5908 17.4636V36.009Z" fill="#34A853"/>
<path d="M37.5908 3.28155V17.4634L48.4999 9.28155V4.91791C48.4999 0.873365 43.8826 -1.43664 40.6454 0.990637L37.5908 3.28155Z" fill="#FBBC04"/>
<path fill-rule="evenodd" clip-rule="evenodd" d="M11.4092 17.4636V3.28174L24.5001 13.0999L37.591 3.28174V17.4636L24.5001 27.2817L11.4092 17.4636Z" fill="#EA4335"/>
<path d="M0.5 4.91791V9.28155L11.4091 17.4634V3.28155L8.35455 0.990637C5.11727 -1.43664 0.5 0.873365 0.5 4.91791Z" fill="#C5221F"/>
</svg>
