<svg width="20" height="19" viewBox="0 0 20 19" fill="none" xmlns="http://www.w3.org/2000/svg">
<g filter="url(#filter0_d_15920_7139)">
<path d="M10 1.5L4.16667 7.33333V15.6667C4.16667 16.1269 4.53976 16.5 5 16.5H7.5C7.96024 16.5 8.33333 16.1269 8.33333 15.6667V12.3333C8.33333 11.8731 8.70643 11.5 9.16667 11.5H10.8333C11.2936 11.5 11.6667 11.8731 11.6667 12.3333V15.6667C11.6667 16.1269 12.0398 16.5 12.5 16.5H15C15.4602 16.5 15.8333 16.1269 15.8333 15.6667V7.33333L10 1.5Z" fill="#D9D9D9"/>
<path d="M2.5 9L4.16667 7.33333M4.16667 7.33333L10 1.5L15.8333 7.33333M4.16667 7.33333V15.6667C4.16667 16.1269 4.53976 16.5 5 16.5H7.5M15.8333 7.33333L17.5 9M15.8333 7.33333V15.6667C15.8333 16.1269 15.4602 16.5 15 16.5H12.5M7.5 16.5C7.96024 16.5 8.33333 16.1269 8.33333 15.6667V12.3333C8.33333 11.8731 8.70643 11.5 9.16667 11.5H10.8333C11.2936 11.5 11.6667 11.8731 11.6667 12.3333V15.6667C11.6667 16.1269 12.0398 16.5 12.5 16.5M7.5 16.5H12.5" stroke="#034B48" stroke-width="1.5" stroke-linecap="round" stroke-linejoin="round"/>
</g>
<defs>
<filter id="filter0_d_15920_7139" x="-2.25" y="0.75" width="24.5" height="24.5" filterUnits="userSpaceOnUse" color-interpolation-filters="sRGB">
<feFlood flood-opacity="0" result="BackgroundImageFix"/>
<feColorMatrix in="SourceAlpha" type="matrix" values="0 0 0 0 0 0 0 0 0 0 0 0 0 0 0 0 0 0 127 0" result="hardAlpha"/>
<feOffset dy="4"/>
<feGaussianBlur stdDeviation="2"/>
<feComposite in2="hardAlpha" operator="out"/>
<feColorMatrix type="matrix" values="0 0 0 0 0 0 0 0 0 0 0 0 0 0 0 0 0 0 0.25 0"/>
<feBlend mode="normal" in2="BackgroundImageFix" result="effect1_dropShadow_15920_7139"/>
<feBlend mode="normal" in="SourceGraphic" in2="effect1_dropShadow_15920_7139" result="shape"/>
</filter>
</defs>
</svg>
