<svg width="18" height="18" viewBox="0 0 18 18" fill="none" xmlns="http://www.w3.org/2000/svg">
<path d="M13.1667 4.66683H14.8333C15.7538 4.66683 16.5 5.41302 16.5 6.3335V11.3335C16.5 12.254 15.7538 13.0002 14.8333 13.0002H13.1667V16.3335L9.83333 13.0002H6.5C6.03976 13.0002 5.6231 12.8136 5.32149 12.512M5.32149 12.512L8.16667 9.66683H11.5C12.4205 9.66683 13.1667 8.92064 13.1667 8.00016V3.00016C13.1667 2.07969 12.4205 1.3335 11.5 1.3335H3.16667C2.24619 1.3335 1.5 2.07969 1.5 3.00016V8.00016C1.5 8.92064 2.24619 9.66683 3.16667 9.66683H4.83333V13.0002L5.32149 12.512Z" stroke="#4B5563" stroke-width="1.5" stroke-linecap="round" stroke-linejoin="round"/>
</svg>
