<svg width="48" height="45" viewBox="0 0 48 45" fill="none" xmlns="http://www.w3.org/2000/svg">
<path d="M47.9999 23.4417C48.0025 23.0664 47.8086 22.717 47.4886 22.5208H47.4831L47.4629 22.5096L30.8304 12.664C30.7586 12.6155 30.684 12.5712 30.6071 12.5312C29.9649 12.1999 29.2021 12.1999 28.5599 12.5312C28.483 12.5712 28.4084 12.6155 28.3366 12.664L11.7041 22.5096L11.684 22.5208C11.1757 22.8369 11.0198 23.5053 11.336 24.0136C11.4291 24.1634 11.5574 24.2882 11.7097 24.3771L28.3422 34.2227C28.4143 34.2708 28.4888 34.3152 28.5655 34.3556C29.2077 34.6869 29.9706 34.6869 30.6128 34.3556C30.6894 34.3152 30.7639 34.2708 30.836 34.2227L47.4686 24.3771C47.8008 24.1834 48.0037 23.8263 47.9999 23.4417Z" fill="#0A2767"/>
<path d="M13.6431 16.8681H24.5581V26.8733H13.6431V16.8681ZM45.7674 6.69767V2.12092C45.7936 0.976627 44.8879 0.0274198 43.7436 0H15.4192C14.2749 0.0274198 13.3691 0.976627 13.3953 2.12092V6.69767L30.1395 11.1628L45.7674 6.69767Z" fill="#0364B8"/>
<path d="M13.3953 6.69775H24.558V16.7443H13.3953V6.69775Z" fill="#0078D4"/>
<path d="M35.7209 6.69775H24.5581V16.7443L35.7209 26.7908H45.7674V16.7443L35.7209 6.69775Z" fill="#28A8EA"/>
<path d="M24.5581 16.7441H35.7209V26.7906H24.5581V16.7441Z" fill="#0078D4"/>
<path d="M24.5581 26.7905H35.7209V36.837H24.5581V26.7905Z" fill="#0364B8"/>
<path d="M13.6431 26.873H24.558V35.9685H13.6431V26.873Z" fill="#14447D"/>
<path d="M35.7209 26.7905H45.7674V36.837H35.7209V26.7905Z" fill="#0078D4"/>
<path d="M47.4888 24.3159L47.4676 24.3271L30.835 33.6815C30.7624 33.7262 30.6888 33.7686 30.6117 33.8065C30.3292 33.9411 30.0224 34.017 29.7098 34.0298L28.8011 33.4984C28.7244 33.4599 28.6498 33.417 28.5779 33.3701L11.7221 23.75H11.7143L11.1628 23.4419V42.3784C11.1714 43.6419 12.2023 44.6592 13.4657 44.6512H45.7328C45.7518 44.6512 45.7686 44.6423 45.7887 44.6423C46.0555 44.6252 46.3186 44.5703 46.57 44.4793C46.6787 44.4333 46.7836 44.3788 46.8837 44.3163C46.9585 44.2739 47.0869 44.1813 47.0869 44.1813C47.6587 43.7581 47.9972 43.0898 48 42.3785V23.4419C47.9996 23.8041 47.8043 24.1381 47.4888 24.3159Z" fill="url(#paint0_linear_15074_52858)"/>
<path opacity="0.5" d="M47.1068 23.3671V24.5281L29.7152 36.5024L11.7096 23.7578C11.7096 23.7517 11.7046 23.7467 11.6985 23.7467L10.0464 22.7532V21.916L10.7273 21.9048L12.1673 22.7308L12.2008 22.742L12.3236 22.8202C12.3236 22.8202 29.2463 32.476 29.291 32.4983L29.9384 32.8778C29.9942 32.8555 30.0501 32.8332 30.117 32.8108C30.1505 32.7885 46.917 23.3559 46.917 23.3559L47.1068 23.3671Z" fill="#0A2767"/>
<path d="M47.4887 24.3159L47.4675 24.3282L30.835 33.6826C30.7624 33.7273 30.6888 33.7697 30.6117 33.8076C29.9658 34.1232 29.2104 34.1232 28.5645 33.8076C28.488 33.7698 28.4135 33.728 28.3412 33.6826L11.7087 24.3282L11.6886 24.3159C11.3675 24.1418 11.1662 23.8072 11.1628 23.4419V42.3784C11.1708 43.6416 12.2013 44.6592 13.4645 44.6512C13.4645 44.6512 13.4646 44.6512 13.4646 44.6512H45.6982C46.9614 44.6592 47.992 43.6417 48 42.3785C48 42.3785 48 42.3785 48 42.3784V23.4419C47.9996 23.8041 47.8043 24.1381 47.4887 24.3159Z" fill="#1490DF"/>
<path opacity="0.1" d="M31.0771 33.5439L30.8282 33.6835C30.756 33.7294 30.6815 33.7715 30.6049 33.8096C30.3307 33.9442 30.0325 34.0232 29.7275 34.0418L36.0557 41.5253L47.0946 44.1854C47.3971 43.9569 47.6377 43.6565 47.7945 43.3114L31.0771 33.5439Z" fill="black"/>
<path opacity="0.05" d="M32.2046 32.9102L30.8282 33.6837C30.756 33.7297 30.6815 33.7718 30.6049 33.8099C30.3307 33.9445 30.0325 34.0234 29.7275 34.042L32.6924 42.2166L47.0979 44.1823C47.6654 43.7562 47.9995 43.0881 47.9999 42.3784V42.1339L32.2046 32.9102Z" fill="black"/>
<path d="M13.4959 44.6512H45.6949C46.1904 44.6537 46.6736 44.4972 47.0735 44.2047L28.8 33.5007C28.7232 33.4622 28.6487 33.4193 28.5768 33.3723L11.721 23.7522H11.7132L11.1628 23.4419V42.3137C11.1616 43.6034 12.2061 44.6499 13.4959 44.6512C13.4958 44.6512 13.4958 44.6512 13.4959 44.6512Z" fill="#28A8EA"/>
<path opacity="0.1" d="M26.7907 10.9763V34.7865C26.7888 35.6213 26.2811 36.3717 25.507 36.6842C25.2672 36.7873 25.009 36.8404 24.7479 36.8405H11.1628V10.0464H13.3954V8.93018H24.748C25.8757 8.93445 26.7883 9.84858 26.7907 10.9763Z" fill="black"/>
<path opacity="0.2" d="M25.6745 12.0926V35.9028C25.6773 36.1725 25.6201 36.4394 25.507 36.6842C25.197 37.4483 24.4563 37.9496 23.6317 37.9534H11.1628V10.0465H23.6317C23.9556 10.0432 24.2748 10.124 24.5582 10.2809C25.2425 10.6257 25.6742 11.3264 25.6745 12.0926Z" fill="black"/>
<path opacity="0.2" d="M25.6745 12.0926V33.6703C25.669 34.7975 24.7589 35.7111 23.6317 35.7209H11.1628V10.0465H23.6317C23.9556 10.0432 24.2748 10.124 24.5582 10.2809C25.2425 10.6257 25.6742 11.3264 25.6745 12.0926Z" fill="black"/>
<path opacity="0.2" d="M24.5582 12.0925V33.6702C24.557 34.7991 23.6443 35.7153 22.5154 35.7208H11.1628V10.0464H22.5154C23.6442 10.047 24.5588 10.9626 24.5582 12.0914C24.5582 12.0918 24.5582 12.0922 24.5582 12.0925Z" fill="black"/>
<path d="M2.04613 10.0464H22.512C23.642 10.0464 24.5581 10.9625 24.5581 12.0925V32.5584C24.5581 33.6884 23.642 34.6045 22.512 34.6045H2.04613C0.916073 34.6045 0 33.6884 0 32.5584V12.0925C0 10.9625 0.916099 10.0464 2.04613 10.0464Z" fill="url(#paint1_linear_15074_52858)"/>
<path d="M6.3951 18.6286C6.8994 17.5542 7.7134 16.655 8.7326 16.0467C9.86129 15.4005 11.1464 15.0784 12.4465 15.1157C13.6514 15.0896 14.8403 15.395 15.8835 15.9987C16.8642 16.5836 17.6542 17.4405 18.1573 18.4656C18.7053 19.5952 18.9784 20.8383 18.9544 22.0936C18.9809 23.4054 18.6999 24.7052 18.1339 25.8889C17.6187 26.9506 16.8038 27.8382 15.7897 28.4418C14.7064 29.064 13.4733 29.3774 12.2243 29.3482C10.9937 29.3779 9.77848 29.069 8.71139 28.4552C7.72213 27.8696 6.92231 27.0116 6.40739 25.9838C5.85616 24.8705 5.57982 23.6414 5.60144 22.3994C5.57848 21.0987 5.84979 19.8097 6.3951 18.6286ZM8.88663 24.69C9.15551 25.3693 9.61147 25.9584 10.2016 26.389C10.8027 26.8091 11.5224 27.0258 12.2555 27.0074C13.0363 27.0383 13.8058 26.8142 14.4479 26.3689C15.0306 25.9396 15.4746 25.3489 15.7249 24.6699C16.0048 23.9116 16.1429 23.1083 16.1324 22.3001C16.141 21.4841 16.0112 20.6726 15.7484 19.9001C15.5162 19.2026 15.0866 18.5876 14.5115 18.1297C13.8856 17.6633 13.1181 17.4268 12.3381 17.4599C11.5892 17.4405 10.8533 17.6589 10.2362 18.0839C9.63609 18.5163 9.17147 19.1106 8.89667 19.7974C8.28706 21.3715 8.28389 23.1159 8.88773 24.6922L8.88663 24.69Z" fill="white"/>
<path d="M35.7209 6.69775H45.7674V16.7443H35.7209V6.69775Z" fill="#50D9FF"/>
<defs>
<linearGradient id="paint0_linear_15074_52858" x1="29.5814" y1="23.4419" x2="29.5814" y2="44.6512" gradientUnits="userSpaceOnUse">
<stop stop-color="#35B8F1"/>
<stop offset="1" stop-color="#28A8EA"/>
</linearGradient>
<linearGradient id="paint1_linear_15074_52858" x1="4.26624" y1="8.44758" x2="20.2919" y2="36.2033" gradientUnits="userSpaceOnUse">
<stop stop-color="#1784D9"/>
<stop offset="0.5" stop-color="#107AD5"/>
<stop offset="1" stop-color="#0A63C9"/>
</linearGradient>
</defs>
</svg>
